<svg xmlns="http://www.w3.org/2000/svg" xmlns:xlink="http://www.w3.org/1999/xlink" xmlns:xodm="http://www.corel.com/coreldraw/odm/2003">
<defs>
	<symbol width="20" height="20" viewBox="0 0 20 20" fill="none" id="telegram">
		<path d="M17.2208 3.09735L2.44583 8.79485C1.4375 9.19985 1.44333 9.76235 2.26083 10.0132L6.05416 11.1965L14.8308 5.65902C15.2458 5.40652 15.625 5.54235 15.3133 5.81902L8.2025 12.2365H8.20083L8.2025 12.2374L7.94083 16.1474C8.32416 16.1474 8.49333 15.9715 8.70833 15.764L10.5508 13.9724L14.3833 16.8032C15.09 17.1924 15.5975 16.9924 15.7733 16.149L18.2892 4.29235C18.5467 3.25985 17.895 2.79235 17.2208 3.09735Z" fill="#1B1A24"/>
	</symbol>
	<symbol width="20" height="20" viewBox="0 0 18 10" fill="none" id="vk">
		<path fill-rule="evenodd" clip-rule="evenodd" d="M0 0.00801047C0.143861 6.25302 3.65035 10 9.8002 10H10.1599V6.42908C12.4166 6.62928 14.1249 8.10249 14.8081 10H18C17.6727 8.92178 17.0922 7.91754 16.2972 7.05358C15.5022 6.18973 14.5105 5.48573 13.3876 4.98793C14.3938 4.44234 15.2629 3.71768 15.9405 2.85948C16.618 2.00127 17.0897 1.02784 17.3257 0H14.4305C13.8012 1.98559 11.9311 3.78697 10.1599 3.95511V0.00801047H7.2557V6.92555C5.45754 6.52515 3.19181 4.58765 3.0929 0.00801047H0Z" fill="black"/>
	</symbol>
	<symbol width="20" height="20" viewBox="0 0 20 20" fill="none" id="youtube">
		<path fill-rule="evenodd" clip-rule="evenodd" d="M16.8475 4.24895C17.5975 4.4502 18.1875 5.04145 18.39 5.79145C18.75 7.1602 18.75 10.0002 18.75 10.0002C18.75 10.0002 18.75 12.8402 18.39 14.2089C18.2899 14.5783 18.0948 14.915 17.8242 15.1856C17.5536 15.4563 17.2169 15.6513 16.8475 15.7514C15.4775 16.1127 10 16.1127 10 16.1127C10 16.1127 4.5225 16.1127 3.1525 15.7514C2.78313 15.6513 2.44641 15.4563 2.1758 15.1856C1.90519 14.915 1.71013 14.5783 1.61 14.2089C1.25 12.8539 1.25 10.0002 1.25 10.0002C1.25 10.0002 1.25 7.1602 1.61 5.79145C1.8125 5.04145 2.40375 4.4502 3.1525 4.24895C4.5225 3.8877 10 3.8877 10 3.8877C10 3.8877 15.4775 3.8877 16.8475 4.24895ZM12.7975 10.0139L8.24125 12.6389V7.3752L12.7963 10.0127L12.7975 10.0139Z" fill="#1B1A24"/>
	</symbol>
	<symbol width="40" height="40" viewBox="0 0 29 29" fill="none" id="info-promotion">
		<circle cx="14.7698" cy="14.5759" r="14" fill="white" fill-opacity="1"/>
		<path d="M16.7717 19.5757H14.7717V14.0757H12.7717M14.7717 8.57568H14.7917" stroke="#DF1A62" stroke-width="2" stroke-linecap="round" stroke-linejoin="round"/>
	</symbol>
	<symbol width="34" height="33" viewBox="0 0 34 33" fill="none" id="footer-tg">
		<rect x="0.5" width="33" height="33" rx="16.5" fill="#00AAFF"/>
		<path d="M22.92 10.0921L8.7471 15.7942C7.77986 16.1995 7.78545 16.7624 8.56964 17.0135L12.2084 18.1978L20.6274 12.6558C21.0255 12.4031 21.3892 12.539 21.0903 12.8159L14.2692 19.2386H14.2676L14.2692 19.2394L14.0182 23.1526C14.3859 23.1526 14.5482 22.9766 14.7544 22.769L16.5218 20.9758L20.1982 23.809C20.876 24.1984 21.3628 23.9983 21.5315 23.1543L23.9448 11.288C24.1918 10.2547 23.5667 9.78681 22.92 10.0921Z" fill="white"/>
	</symbol>
</defs>
</svg>