<svg width="132" height="32" fill="none" xmlns="http://www.w3.org/2000/svg"><path d="M37.955 25.587c-.851 0-1.532-.26-2.043-.782-.492-.521-.738-1.216-.738-2.084V6.595h2.923v4.72h4.173v2.518h-4.173V22.2c0 .579.265.868.795.868h2.924v2.519h-3.86Zm11.536.405c-1.4 0-2.649-.29-3.746-.869a6.545 6.545 0 0 1-2.555-2.547c-.624-1.1-.936-2.403-.936-3.908v-.434c0-1.506.312-2.799.936-3.88a6.545 6.545 0 0 1 2.555-2.547c1.097-.599 2.346-.898 3.746-.898s2.65.3 3.747.898a6.493 6.493 0 0 1 2.583 2.547c.624 1.081.937 2.374.937 3.88v.434c0 1.505-.313 2.808-.937 3.908a6.493 6.493 0 0 1-2.583 2.547c-1.097.58-2.346.869-3.747.869Zm0-2.663c1.287 0 2.328-.415 3.123-1.245.813-.85 1.22-2.017 1.22-3.503v-.26c0-1.487-.397-2.645-1.192-3.475-.795-.849-1.845-1.273-3.15-1.273-1.268 0-2.31.424-3.123 1.273-.795.83-1.192 1.988-1.192 3.474v.26c0 1.487.397 2.655 1.192 3.504.814.83 1.855 1.245 3.122 1.245Zm8.636 4.911V11.315h2.866v2.055h.455c.36-.637.898-1.206 1.617-1.708.738-.502 1.789-.753 3.151-.753 1.173 0 2.242.29 3.207.869.984.579 1.77 1.418 2.356 2.518.606 1.081.909 2.393.909 3.938v.434c0 1.544-.294 2.866-.88 3.966-.587 1.08-1.372 1.91-2.356 2.49a6.265 6.265 0 0 1-3.236.868c-.908 0-1.675-.116-2.299-.347-.625-.232-1.126-.521-1.504-.869a5.402 5.402 0 0 1-.909-1.129h-.454v4.593h-2.923Zm7.238-4.853c1.286 0 2.337-.415 3.15-1.245.814-.83 1.22-2.017 1.22-3.561v-.26c0-1.525-.416-2.703-1.248-3.533-.814-.83-1.855-1.244-3.122-1.244-1.25 0-2.29.415-3.123 1.245-.813.83-1.22 2.007-1.22 3.531v.26c0 1.545.407 2.732 1.22 3.562.833.83 1.874 1.245 3.123 1.245Zm14.717 2.605c-1.779 0-3.255-.405-4.428-1.216-1.173-.81-1.892-2.036-2.157-3.677l2.725-.665c.151.79.407 1.418.766 1.881.36.464.804.792 1.334.985a5.27 5.27 0 0 0 1.76.29c.927 0 1.637-.184 2.129-.55.51-.368.766-.84.766-1.42 0-.578-.236-1.003-.71-1.273-.472-.27-1.173-.492-2.1-.666l-.965-.174a12.34 12.34 0 0 1-2.583-.752c-.776-.328-1.39-.782-1.845-1.361-.454-.58-.68-1.322-.68-2.23 0-1.35.491-2.392 1.475-3.126.984-.752 2.29-1.129 3.917-1.129 1.57 0 2.857.367 3.86 1.1 1.022.714 1.684 1.689 1.987 2.924l-2.725.782c-.17-.869-.53-1.477-1.078-1.824-.55-.367-1.23-.55-2.044-.55-.795 0-1.42.154-1.873.463-.454.29-.681.705-.681 1.245 0 .579.217 1.004.652 1.274.454.27 1.06.473 1.817.608l.993.173c1.003.174 1.92.415 2.753.724.833.309 1.486.753 1.959 1.332.492.579.738 1.35.738 2.316 0 1.428-.52 2.538-1.561 3.329-1.04.791-2.441 1.187-4.2 1.187Zm9.998-.405c-.85 0-1.532-.26-2.043-.782-.492-.521-.738-1.216-.738-2.084V6.595h2.924v4.72h4.172v2.518h-4.172V22.2c0 .579.265.868.794.868h2.924v2.519h-3.86Zm11.537.405c-1.4 0-2.65-.29-3.747-.869a6.544 6.544 0 0 1-2.554-2.547c-.625-1.1-.937-2.403-.937-3.908v-.434c0-1.506.312-2.799.937-3.88a6.544 6.544 0 0 1 2.554-2.547c1.098-.599 2.347-.898 3.747-.898s2.649.3 3.746.898a6.487 6.487 0 0 1 2.583 2.547c.625 1.081.937 2.374.937 3.88v.434c0 1.505-.312 2.808-.937 3.908a6.487 6.487 0 0 1-2.583 2.547c-1.097.58-2.346.869-3.746.869Zm0-2.663c1.287 0 2.327-.415 3.122-1.245.814-.85 1.221-2.017 1.221-3.503v-.26c0-1.487-.398-2.645-1.193-3.475-.794-.849-1.845-1.273-3.15-1.273-1.268 0-2.309.424-3.122 1.273-.795.83-1.193 1.988-1.193 3.474v.26c0 1.487.398 2.655 1.193 3.504.813.83 1.854 1.245 3.122 1.245Zm8.635 2.258V11.315h2.867v1.679h.454c.227-.599.587-1.033 1.079-1.303.51-.29 1.135-.434 1.873-.434h1.675v2.692h-1.789c-.946 0-1.722.27-2.327.81-.606.522-.908 1.332-.908 2.432v8.396h-2.924Zm15.027.405c-1.42 0-2.659-.3-3.719-.898a6.617 6.617 0 0 1-2.498-2.576c-.586-1.12-.879-2.413-.879-3.88v-.347c0-1.486.293-2.779.879-3.879.587-1.12 1.401-1.978 2.441-2.576 1.06-.618 2.281-.927 3.662-.927 1.343 0 2.517.309 3.52.927a6.191 6.191 0 0 1 2.384 2.518c.567 1.081.851 2.345.851 3.793v1.129h-10.757c.038 1.254.445 2.258 1.22 3.01.795.734 1.779 1.1 2.952 1.1 1.098 0 1.921-.25 2.47-.752a5.222 5.222 0 0 0 1.305-1.737l2.413 1.274c-.265.54-.653 1.11-1.164 1.708-.492.598-1.145 1.1-1.958 1.505-.814.405-1.855.608-3.122.608Zm-4.088-9.003h7.749c-.076-1.081-.454-1.92-1.135-2.519-.682-.618-1.571-.926-2.668-.926-1.098 0-1.997.308-2.697.926-.681.598-1.097 1.438-1.249 2.519Z" fill="#fff"/><path fill-rule="evenodd" clip-rule="evenodd" d="M23.139 25.716h3.47c.863 0 1.564-.7 1.564-1.565V12.985a7.823 7.823 0 0 0-2.417-5.654L18.09 0l-7.672 7.33A7.823 7.823 0 0 0 8 12.988V24.15c0 .864.7 1.565 1.565 1.565h3.48l.015-.014-1.185-2.88h-.982V12.775a4.44 4.44 0 0 1 1.37-3.205l5.826-5.566L23.91 9.57a4.433 4.433 0 0 1 1.37 3.204v10.05h-.99l-.01-.01-1.141 2.903Zm-5.03-18.504 3.887 3.485c.607.544.954 1.321.954 2.136v2.737l-3.463-3.174v3.496l-1.435-1.285-1.436 1.286v-3.444l-3.472 3.13v-2.56c0-.805.338-1.573.932-2.116l4.033-3.69Z" fill="#fff"/><path fill-rule="evenodd" clip-rule="evenodd" d="M23.139 25.716h3.47c.863 0 1.564-.7 1.564-1.565V12.985a7.823 7.823 0 0 0-2.417-5.654L18.09 0l-7.672 7.33A7.823 7.823 0 0 0 8 12.988V24.15c0 .864.7 1.565 1.565 1.565h3.48l.015-.014-1.185-2.88h-.982V12.775a4.44 4.44 0 0 1 1.37-3.205l5.826-5.566L23.91 9.57a4.433 4.433 0 0 1 1.37 3.204v10.05h-.99l-.01-.01-1.141 2.903Zm-5.03-18.504 3.887 3.485c.607.544.954 1.321.954 2.136v2.737l-3.463-3.174v3.496l-1.435-1.285-1.436 1.286v-3.444l-3.472 3.13v-2.56c0-.805.338-1.573.932-2.116l4.033-3.69Z" fill="url(#a)"/><path d="M21.996 10.698 18.11 7.212l-4.033 3.691a2.869 2.869 0 0 0-.931 2.116v2.56l3.471-3.13v3.444l1.436-1.286 1.435 1.286v-3.497l3.463 3.175v-2.738c0-.815-.347-1.591-.954-2.135Z" fill="url(#b)"/><path fill-rule="evenodd" clip-rule="evenodd" d="m18.088 20.912 5.041 4.804h.01l1.14-2.901-6.19-5.899-6.203 5.907h-.011l1.184 2.878 5.029-4.789Z" fill="url(#c)"/><defs><linearGradient id="a" x1="18.17" y1=".077" x2="18.172" y2="21.851" gradientUnits="userSpaceOnUse"><stop offset=".245" stop-color="#F81B5D"/><stop offset="1" stop-color="#FF782C"/></linearGradient><linearGradient id="b" x1="18.047" y1="7.212" x2="18.047" y2="15.893" gradientUnits="userSpaceOnUse"><stop stop-color="#FF782C"/><stop offset="1" stop-color="#DF1A62"/></linearGradient><radialGradient id="c" cx="0" cy="0" r="1" gradientUnits="userSpaceOnUse" gradientTransform="matrix(.13038 6.91045 -9.74015 .18377 17.779 17.027)"><stop stop-color="#DC1166"/><stop offset="1" stop-color="#FF782C"/></radialGradient></defs></svg>