<svg width="45" height="45" fill="none" xmlns="http://www.w3.org/2000/svg"><path d="M11.953 37.969a4.922 4.922 0 1 0 0-9.844 4.922 4.922 0 0 0 0 9.844Zm0-21.094a4.922 4.922 0 1 0 0-9.844 4.922 4.922 0 0 0 0 9.844Zm0 0v11.25m21.094 9.844a4.922 4.922 0 1 0 0-9.844 4.922 4.922 0 0 0 0 9.844Zm0-9.844v-7.049a8.473 8.473 0 0 0-2.479-5.976l-6.662-6.662" stroke="#fff" stroke-width="2" stroke-linecap="round" stroke-linejoin="round"/><path d="M23.906 15.469V8.438h7.032" stroke="#fff" stroke-width="2" stroke-linecap="round" stroke-linejoin="round"/></svg>