<svg width="46" height="46" fill="none" xmlns="http://www.w3.org/2000/svg"><path d="M32.344 7.188h5.031a1.438 1.438 0 0 1 1.438 1.437v5.031m-6.469 25.157h5.031a1.438 1.438 0 0 0 1.438-1.438v-5.031m-25.157 6.469H8.625a1.437 1.437 0 0 1-1.438-1.438v-5.031m6.469-25.156H8.625a1.438 1.438 0 0 0-1.438 1.437v5.031M23 25.875a5.75 5.75 0 1 0 0-11.5 5.75 5.75 0 0 0 0 11.5Z" stroke="#fff" stroke-width="2" stroke-linecap="round" stroke-linejoin="round"/><path d="M13.459 31.625a10.798 10.798 0 0 1 19.083 0" stroke="#fff" stroke-width="2" stroke-linecap="round" stroke-linejoin="round"/></svg>