<svg width="18" height="10" viewBox="0 0 18 10" fill="none" xmlns="http://www.w3.org/2000/svg">
<path fill-rule="evenodd" clip-rule="evenodd" d="M0 0.00801047C0.143861 6.25302 3.65035 10 9.8002 10H10.1599V6.42908C12.4166 6.62928 14.1249 8.10249 14.8081 10H18C17.6727 8.92178 17.0922 7.91754 16.2972 7.05357C15.5022 6.18973 14.5105 5.48573 13.3876 4.98793C14.3938 4.44234 15.2629 3.71768 15.9405 2.85948C16.618 2.00127 17.0897 1.02784 17.3257 0H14.4305C13.8012 1.98559 11.9311 3.78697 10.1599 3.95511V0.00801047H7.2557V6.92555C5.45754 6.52515 3.19181 4.58765 3.0929 0.00801047H0Z" fill="black"/>
</svg>
