<svg width="20" height="20" fill="none" xmlns="http://www.w3.org/2000/svg"><path fill-rule="evenodd" clip-rule="evenodd" d="M16.848 4.249c.75.201 1.34.792 1.542 1.542.36 1.37.36 4.21.36 4.21s0 2.84-.36 4.208a2.192 2.192 0 0 1-1.543 1.542c-1.37.362-6.847.362-6.847.362s-5.478 0-6.848-.362A2.191 2.191 0 0 1 1.61 14.21C1.25 12.854 1.25 10 1.25 10s0-2.84.36-4.209A2.194 2.194 0 0 1 3.152 4.25C4.522 3.888 10 3.888 10 3.888s5.477 0 6.848.36Zm-4.05 5.765L8.24 12.639V7.375l4.555 2.638h.002Z" fill="#1B1A24"/></svg>